<svg width="43" height="44" viewBox="0 0 43 44" fill="none" xmlns="http://www.w3.org/2000/svg">
<path d="M8.0625 39.4166L15.2292 32.0833M18.8125 32.0833L25.9792 39.4166M17.0208 32.0833V41.25" stroke="white" stroke-width="3.5" stroke-linecap="round" stroke-linejoin="round"/>
<path d="M3.58334 21.7708C3.58334 17.9898 3.58334 16.0993 5.42003 14.9246C7.2567 13.75 10.2128 13.75 16.125 13.75H17.9167C23.8288 13.75 26.7849 13.75 28.6217 14.9246C30.4583 16.0993 30.4583 17.9898 30.4583 21.7708V24.0625C30.4583 27.8436 30.4583 29.7341 28.6217 30.9087C26.7849 32.0833 23.8288 32.0833 17.9167 32.0833H16.125C10.2128 32.0833 7.2567 32.0833 5.42003 30.9087C3.58334 29.7341 3.58334 27.8436 3.58334 24.0625V21.7708Z" stroke="white" stroke-width="3.5"/>
<path d="M30.4583 18.7908L30.6839 18.6523C34.4747 16.3246 36.3701 15.1608 37.8934 15.7228C39.4167 16.2847 39.4167 18.1477 39.4167 21.8739V23.9589C39.4167 27.685 39.4167 29.548 37.8934 30.1099C36.3701 30.6719 34.4747 29.5081 30.6839 27.1805L30.4583 27.0419" stroke="white" stroke-width="3.5" stroke-linecap="round"/>
<path d="M22.3958 13.75C24.8696 13.75 26.875 11.698 26.875 9.16665C26.875 6.63534 24.8696 4.58331 22.3958 4.58331C19.9221 4.58331 17.9167 6.63534 17.9167 9.16665C17.9167 11.698 19.9221 13.75 22.3958 13.75Z" stroke="white" stroke-width="3.5"/>
<path d="M12.5417 13.75C15.5102 13.75 17.9167 11.2876 17.9167 8.25C17.9167 5.21243 15.5102 2.75 12.5417 2.75C9.57313 2.75 7.16666 5.21243 7.16666 8.25C7.16666 11.2876 9.57313 13.75 12.5417 13.75Z" stroke="white" stroke-width="3.5"/>
</svg>
