<svg width="31" height="28" viewBox="0 0 31 28" fill="none" xmlns="http://www.w3.org/2000/svg">
<path d="M10.1562 20.3438C11.6562 21.7969 13.4375 22.5234 15.5 22.5234C17.5625 22.5234 19.3203 21.7969 20.7734 20.3438C22.2734 18.8438 23.0234 17.0625 23.0234 15C23.0234 12.9375 22.2734 11.1797 20.7734 9.72656C19.3203 8.22656 17.5625 7.47656 15.5 7.47656C13.4375 7.47656 11.6562 8.22656 10.1562 9.72656C8.70312 11.1797 7.97656 12.9375 7.97656 15C7.97656 17.0625 8.70312 18.8438 10.1562 20.3438ZM11 0.0234375H20L22.7422 2.97656H27.5234C28.3203 2.97656 29 3.28125 29.5625 3.89062C30.1719 4.5 30.4766 5.20313 30.4766 6V24C30.4766 24.7969 30.1719 25.5 29.5625 26.1094C29 26.7188 28.3203 27.0234 27.5234 27.0234H3.47656C2.67969 27.0234 1.97656 26.7188 1.36719 26.1094C0.804688 25.5 0.523438 24.7969 0.523438 24V6C0.523438 5.20313 0.804688 4.5 1.36719 3.89062C1.97656 3.28125 2.67969 2.97656 3.47656 2.97656H8.25781L11 0.0234375ZM12.125 18.375C11.1875 17.4375 10.7188 16.3125 10.7188 15C10.7188 13.6875 11.1875 12.5625 12.125 11.625C13.0625 10.6875 14.1875 10.2188 15.5 10.2188C16.8125 10.2188 17.9375 10.6875 18.875 11.625C19.8125 12.5625 20.2812 13.6875 20.2812 15C20.2812 16.3125 19.8125 17.4375 18.875 18.375C17.9375 19.3125 16.8125 19.7812 15.5 19.7812C14.1875 19.7812 13.0625 19.3125 12.125 18.375Z" fill="#FFA9D2"/>
</svg>
