<svg width="32" height="37" viewBox="0 0 32 37" fill="none" xmlns="http://www.w3.org/2000/svg">
<path d="M23.5374 13.8274C23.4681 14.6539 23.3544 15.476 23.2019 16.2914C22.0645 22.3349 18.7189 27.7219 14.5892 32.2602C10.5029 26.6163 6.30993 20.6977 4.63499 13.848C4.26585 12.3408 3.97644 10.7695 3.9567 9.21239C3.94949 8.53607 3.98954 7.8386 4.17 7.18248C4.38412 6.40266 4.56501 6.24937 5.39539 6.19295C8.87158 5.95478 10.5254 9.49384 11.0595 12.3251C11.789 16.1977 11.8159 20.2156 11.3449 24.1243C11.2945 24.5487 12.2227 23.9009 12.259 23.8731C12.6746 23.5593 13.2926 23.0426 13.4357 22.52C14.506 18.6563 16.184 14.7854 18.6554 11.5796C19.2884 10.7559 20.0275 10.0699 21.119 9.95691C21.9934 9.86668 22.9995 10.1499 23.4083 10.9828C23.8065 11.7981 23.6109 12.9567 23.5374 13.8274ZM25.1019 8.50588C23.9555 7.41159 22.0699 7.93204 20.87 8.63089C19.3007 9.54542 18.0006 10.9364 16.9421 12.3897C15.7434 14.0347 14.6951 15.785 13.7984 17.6087C13.8322 15.0529 13.6253 12.4874 13.081 10.0192C12.4208 7.00754 10.2956 3.43984 6.62467 4.21647C3.49107 4.87914 1.75367 8.19747 1.82811 11.1319C1.92767 15.0825 3.36199 19.0502 5.08864 22.5591C7.1495 26.7407 9.85892 30.563 12.5893 34.3337C12.495 34.4256 12.4036 34.517 12.3119 34.607C12.1428 34.7699 11.2747 35.5942 11.55 35.875C11.8176 36.15 12.7259 35.2765 12.85 35.156C13.0163 34.9938 13.1816 34.8279 13.3502 34.6627C13.9423 34.3496 14.8664 33.5019 14.9768 32.997C19.0547 28.6695 22.5709 23.6876 24.4234 18.0491C24.9409 16.4754 25.3252 14.8522 25.5415 13.213C25.7215 11.8583 26.2268 9.57622 25.1019 8.50588Z" fill="#FFA9D2"/>
<path d="M20.3235 2.04173C19.8328 2.38813 19.0676 2.94784 18.9601 3.49625C18.7842 4.3786 18.6785 5.25836 18.6404 6.14005C18.6207 6.59298 19.7996 5.81029 19.9136 5.72991C20.3443 5.42641 21.257 4.78617 21.2805 4.2745C21.3151 3.39398 21.4208 2.51423 21.5968 1.63188C21.6873 1.1786 20.4061 1.9845 20.3235 2.04173Z" fill="#FFA9D2"/>
<path d="M26.9123 2.24878C26.803 2.13716 26.4986 2.3016 26.4164 2.34666C25.8758 2.6492 25.2334 3.1905 24.9439 3.74628C24.7957 4.03535 24.6343 4.32139 24.465 4.60093C24.3903 4.72453 24.3124 4.84774 24.2341 4.96952C24.1846 5.04515 24.132 5.12038 24.0824 5.19544C24.0711 5.21227 24.055 5.23486 24.0319 5.26708C23.9144 5.43095 23.433 6.20159 24.0256 5.99334C24.604 5.7905 25.2041 5.21772 25.5468 4.73677C26.0102 4.09178 26.4352 3.43071 26.8002 2.72989C26.8418 2.64776 27.0284 2.36262 26.9123 2.24878Z" fill="#FFA9D2"/>
</svg>
